# xmcd
#
# Track frame offsets: 
#        150
#        16150
#        22310
#        30600
#        37435
#        45992
#        51830
#        59702
#        71097
#        76545
#        84017
#        89837
#        99780
#        106495
#        112745
#        119452
#
# Disc length: 1692 seconds
#
# Revision: 4
# Processed by: cddbd v1.4PL0 Copyright (c) Steve Scherf et al.
# Submitted via: ExactAudioCopy v0.95a3
#
DISCID=cb069a10
DTITLE=Various Artist - Outback Adventures CD2Of2
DYEAR=1997
DGENRE=Country
TTITLE0=G Porter, L Kernaghan, F Kernaghan, T Dann - This Is The Outba
TTITLE0=ck (instrumental)
TTITLE1=G Porter, R McCormack - Twango (instrumental)
TTITLE2=G Porter, R McCormack - Amburla (instrumental)
TTITLE3=G Porter, R McCormack - Billabong (instrumental)
TTITLE4=G Porter, R McCormack - Cruising (instrumental)
TTITLE5=G Porter, R McCormack - Road Train (instrumental)
TTITLE6=G Porter, R McCormack - Tanami Ride (instrumental)
TTITLE7=G Porter, R McCormack - Uluru (instrumental)
TTITLE8=G Porter, R McCormack - Serenity (instrumental)
TTITLE9=G Porter, R McCormack - Simone (instrumental)
TTITLE10=G Porter, R McCormack - Moonlight (instrumental)
TTITLE11=G Porter, R McCormack - Shadowland (instrumental)
TTITLE12=G Porter, R McCormack - Brown Water (instrumental)
TTITLE13=G Porter, R McCormack - Juanita (instrumental)
TTITLE14=G Porter, R McCormack - High Places (instrumental)
TTITLE15=G Porter, R McCormack - Into The Heat (instrumental)
EXTD=YEAR: 1997 ID3G:   2
EXTT0=
EXTT1=
EXTT2=
EXTT3=
EXTT4=
EXTT5=
EXTT6=
EXTT7=
EXTT8=
EXTT9=
EXTT10=
EXTT11=
EXTT12=
EXTT13=
EXTT14=
EXTT15=
PLAYORDER=
